<mxfile host="Electron" agent="Mozilla/5.0 (X11; Linux x86_64) AppleWebKit/537.36 (KHTML, like Gecko) draw.io/25.0.1 Chrome/128.0.6613.186 Electron/32.2.6 Safari/537.36" version="25.0.1">
  <diagram name="Page-1" id="2YBvvXClWsGukQMizWep">
    <mxGraphModel dx="1789" dy="581" grid="1" gridSize="10" guides="1" tooltips="1" connect="1" arrows="1" fold="1" page="1" pageScale="1" pageWidth="850" pageHeight="1100" math="0" shadow="0">
      <root>
        <mxCell id="0" />
        <mxCell id="1" parent="0" />
        <mxCell id="aM9ryv3xv72pqoxQDRHE-1" value=":BoardBuilder" style="shape=umlLifeline;perimeter=lifelinePerimeter;whiteSpace=wrap;html=1;container=0;dropTarget=0;collapsible=0;recursiveResize=0;outlineConnect=0;portConstraint=eastwest;newEdgeStyle={&quot;edgeStyle&quot;:&quot;elbowEdgeStyle&quot;,&quot;elbow&quot;:&quot;vertical&quot;,&quot;curved&quot;:0,&quot;rounded&quot;:0};" parent="1" vertex="1">
          <mxGeometry x="40" y="50" width="100" height="430" as="geometry" />
        </mxCell>
        <mxCell id="aM9ryv3xv72pqoxQDRHE-2" value="" style="html=1;points=[];perimeter=orthogonalPerimeter;outlineConnect=0;targetShapes=umlLifeline;portConstraint=eastwest;newEdgeStyle={&quot;edgeStyle&quot;:&quot;elbowEdgeStyle&quot;,&quot;elbow&quot;:&quot;vertical&quot;,&quot;curved&quot;:0,&quot;rounded&quot;:0};" parent="aM9ryv3xv72pqoxQDRHE-1" vertex="1">
          <mxGeometry x="45" y="70" width="10" height="350" as="geometry" />
        </mxCell>
        <mxCell id="aM9ryv3xv72pqoxQDRHE-5" value=":Board" style="shape=umlLifeline;perimeter=lifelinePerimeter;whiteSpace=wrap;html=1;container=0;dropTarget=0;collapsible=0;recursiveResize=0;outlineConnect=0;portConstraint=eastwest;newEdgeStyle={&quot;edgeStyle&quot;:&quot;elbowEdgeStyle&quot;,&quot;elbow&quot;:&quot;vertical&quot;,&quot;curved&quot;:0,&quot;rounded&quot;:0};" parent="1" vertex="1">
          <mxGeometry x="220" y="40" width="100" height="330" as="geometry" />
        </mxCell>
        <mxCell id="aM9ryv3xv72pqoxQDRHE-6" value="" style="html=1;points=[];perimeter=orthogonalPerimeter;outlineConnect=0;targetShapes=umlLifeline;portConstraint=eastwest;newEdgeStyle={&quot;edgeStyle&quot;:&quot;elbowEdgeStyle&quot;,&quot;elbow&quot;:&quot;vertical&quot;,&quot;curved&quot;:0,&quot;rounded&quot;:0};" parent="aM9ryv3xv72pqoxQDRHE-5" vertex="1">
          <mxGeometry x="45" y="80" width="10" height="250" as="geometry" />
        </mxCell>
        <mxCell id="aM9ryv3xv72pqoxQDRHE-7" value="new Board()" style="html=1;verticalAlign=bottom;endArrow=block;edgeStyle=elbowEdgeStyle;elbow=vertical;curved=0;rounded=0;" parent="1" source="aM9ryv3xv72pqoxQDRHE-2" target="aM9ryv3xv72pqoxQDRHE-6" edge="1">
          <mxGeometry relative="1" as="geometry">
            <mxPoint x="195" y="130" as="sourcePoint" />
            <Array as="points">
              <mxPoint x="180" y="120" />
            </Array>
          </mxGeometry>
        </mxCell>
        <mxCell id="aM9ryv3xv72pqoxQDRHE-8" value="Board" style="html=1;verticalAlign=bottom;endArrow=open;dashed=1;endSize=8;edgeStyle=elbowEdgeStyle;elbow=vertical;curved=0;rounded=0;" parent="1" edge="1">
          <mxGeometry relative="1" as="geometry">
            <mxPoint x="95" y="140" as="targetPoint" />
            <Array as="points">
              <mxPoint x="190" y="140" />
              <mxPoint x="190" y="260" />
            </Array>
            <mxPoint x="265" y="140" as="sourcePoint" />
          </mxGeometry>
        </mxCell>
        <mxCell id="4RATZ_L6z9i9sq4y6GlY-1" value="setLength()" style="html=1;verticalAlign=bottom;endArrow=block;curved=0;rounded=0;" edge="1" parent="1" target="aM9ryv3xv72pqoxQDRHE-5">
          <mxGeometry width="80" relative="1" as="geometry">
            <mxPoint x="90" y="160" as="sourcePoint" />
            <mxPoint x="170" y="160" as="targetPoint" />
          </mxGeometry>
        </mxCell>
        <mxCell id="4RATZ_L6z9i9sq4y6GlY-3" value="setHeight()" style="html=1;verticalAlign=bottom;endArrow=block;curved=0;rounded=0;" edge="1" parent="1">
          <mxGeometry width="80" relative="1" as="geometry">
            <mxPoint x="90" y="180" as="sourcePoint" />
            <mxPoint x="270" y="180" as="targetPoint" />
          </mxGeometry>
        </mxCell>
        <mxCell id="4RATZ_L6z9i9sq4y6GlY-4" value="setTriangleSize()" style="html=1;verticalAlign=bottom;endArrow=block;curved=0;rounded=0;" edge="1" parent="1">
          <mxGeometry width="80" relative="1" as="geometry">
            <mxPoint x="90" y="200" as="sourcePoint" />
            <mxPoint x="270" y="200" as="targetPoint" />
          </mxGeometry>
        </mxCell>
        <mxCell id="4RATZ_L6z9i9sq4y6GlY-5" value="new Point()" style="html=1;verticalAlign=bottom;endArrow=block;curved=0;rounded=0;" edge="1" parent="1">
          <mxGeometry width="80" relative="1" as="geometry">
            <mxPoint x="90" y="220" as="sourcePoint" />
            <mxPoint x="270" y="220" as="targetPoint" />
          </mxGeometry>
        </mxCell>
        <mxCell id="4RATZ_L6z9i9sq4y6GlY-7" style="edgeStyle=orthogonalEdgeStyle;rounded=0;orthogonalLoop=1;jettySize=auto;html=1;" edge="1" parent="1" source="4RATZ_L6z9i9sq4y6GlY-6" target="aM9ryv3xv72pqoxQDRHE-2">
          <mxGeometry relative="1" as="geometry">
            <Array as="points">
              <mxPoint x="50" y="220" />
              <mxPoint x="50" y="220" />
            </Array>
          </mxGeometry>
        </mxCell>
        <mxCell id="4RATZ_L6z9i9sq4y6GlY-6" value="Inits Array with points.&lt;div&gt;If field of array is not part of the game it is left null&lt;/div&gt;" style="shape=note;whiteSpace=wrap;html=1;backgroundOutline=1;darkOpacity=0.05;" vertex="1" parent="1">
          <mxGeometry x="-150" y="150" width="180" height="80" as="geometry" />
        </mxCell>
        <mxCell id="4RATZ_L6z9i9sq4y6GlY-8" value="addCornerPoint()" style="html=1;verticalAlign=bottom;endArrow=block;curved=0;rounded=0;" edge="1" parent="1">
          <mxGeometry x="0.001" width="80" relative="1" as="geometry">
            <mxPoint x="89.99999999999977" y="250" as="sourcePoint" />
            <mxPoint x="264.5" y="250.0000000000001" as="targetPoint" />
            <Array as="points">
              <mxPoint x="135" y="250" />
            </Array>
            <mxPoint as="offset" />
          </mxGeometry>
        </mxCell>
        <mxCell id="4RATZ_L6z9i9sq4y6GlY-10" style="edgeStyle=orthogonalEdgeStyle;rounded=0;orthogonalLoop=1;jettySize=auto;html=1;" edge="1" parent="1" source="4RATZ_L6z9i9sq4y6GlY-9" target="aM9ryv3xv72pqoxQDRHE-2">
          <mxGeometry relative="1" as="geometry">
            <mxPoint x="80" y="240" as="targetPoint" />
            <Array as="points">
              <mxPoint x="47" y="250" />
              <mxPoint x="47" y="240" />
            </Array>
          </mxGeometry>
        </mxCell>
        <mxCell id="4RATZ_L6z9i9sq4y6GlY-9" value="There are 6" style="shape=note;whiteSpace=wrap;html=1;backgroundOutline=1;darkOpacity=0.05;" vertex="1" parent="1">
          <mxGeometry x="-140" y="240" width="140" height="40" as="geometry" />
        </mxCell>
        <mxCell id="4RATZ_L6z9i9sq4y6GlY-13" style="edgeStyle=orthogonalEdgeStyle;rounded=0;orthogonalLoop=1;jettySize=auto;html=1;" edge="1" parent="1" source="4RATZ_L6z9i9sq4y6GlY-12" target="aM9ryv3xv72pqoxQDRHE-2">
          <mxGeometry relative="1" as="geometry">
            <Array as="points">
              <mxPoint x="47" y="335" />
              <mxPoint x="47" y="260" />
            </Array>
          </mxGeometry>
        </mxCell>
        <mxCell id="4RATZ_L6z9i9sq4y6GlY-12" value="Sets Start Corners&amp;nbsp;&lt;div&gt;For players&lt;/div&gt;&lt;div&gt;Then all pawns are&amp;nbsp;&lt;/div&gt;&lt;div&gt;Generated starting from this start corner&lt;/div&gt;" style="shape=note;whiteSpace=wrap;html=1;backgroundOutline=1;darkOpacity=0.05;" vertex="1" parent="1">
          <mxGeometry x="-160" y="290" width="170" height="90" as="geometry" />
        </mxCell>
        <mxCell id="4RATZ_L6z9i9sq4y6GlY-15" value="InitPoints()" style="html=1;align=left;spacingLeft=2;endArrow=block;rounded=0;edgeStyle=orthogonalEdgeStyle;curved=0;rounded=0;" edge="1" parent="1">
          <mxGeometry relative="1" as="geometry">
            <mxPoint x="90" y="209.94" as="sourcePoint" />
            <Array as="points">
              <mxPoint x="120" y="239.94" />
            </Array>
            <mxPoint x="94.99999999999977" y="239.9744827586207" as="targetPoint" />
          </mxGeometry>
        </mxCell>
        <mxCell id="4RATZ_L6z9i9sq4y6GlY-16" value="InitCornerPoints()" style="html=1;align=left;spacingLeft=2;endArrow=block;rounded=0;edgeStyle=orthogonalEdgeStyle;curved=0;rounded=0;" edge="1" parent="1">
          <mxGeometry relative="1" as="geometry">
            <mxPoint x="90" y="244.97" as="sourcePoint" />
            <Array as="points">
              <mxPoint x="120" y="274.97" />
            </Array>
            <mxPoint x="94.99999999999977" y="275.0044827586207" as="targetPoint" />
          </mxGeometry>
        </mxCell>
        <mxCell id="4RATZ_L6z9i9sq4y6GlY-17" value="InitPlayers(playerNumber)" style="html=1;align=left;spacingLeft=2;endArrow=block;rounded=0;edgeStyle=orthogonalEdgeStyle;curved=0;rounded=0;" edge="1" parent="1">
          <mxGeometry relative="1" as="geometry">
            <mxPoint x="90" y="280" as="sourcePoint" />
            <Array as="points">
              <mxPoint x="120" y="280" />
              <mxPoint x="120" y="310" />
            </Array>
            <mxPoint x="94.99999999999977" y="310.0344827586207" as="targetPoint" />
          </mxGeometry>
        </mxCell>
        <mxCell id="4RATZ_L6z9i9sq4y6GlY-18" value=":Player" style="shape=umlLifeline;perimeter=lifelinePerimeter;whiteSpace=wrap;html=1;container=0;dropTarget=0;collapsible=0;recursiveResize=0;outlineConnect=0;portConstraint=eastwest;newEdgeStyle={&quot;edgeStyle&quot;:&quot;elbowEdgeStyle&quot;,&quot;elbow&quot;:&quot;vertical&quot;,&quot;curved&quot;:0,&quot;rounded&quot;:0};" vertex="1" parent="1">
          <mxGeometry x="340" y="40" width="100" height="300" as="geometry" />
        </mxCell>
        <mxCell id="4RATZ_L6z9i9sq4y6GlY-19" value="" style="html=1;points=[];perimeter=orthogonalPerimeter;outlineConnect=0;targetShapes=umlLifeline;portConstraint=eastwest;newEdgeStyle={&quot;edgeStyle&quot;:&quot;elbowEdgeStyle&quot;,&quot;elbow&quot;:&quot;vertical&quot;,&quot;curved&quot;:0,&quot;rounded&quot;:0};" vertex="1" parent="4RATZ_L6z9i9sq4y6GlY-18">
          <mxGeometry x="45" y="240" width="10" height="50" as="geometry" />
        </mxCell>
        <mxCell id="4RATZ_L6z9i9sq4y6GlY-20" value="new Player(startcolor)" style="html=1;verticalAlign=bottom;endArrow=block;curved=0;rounded=0;" edge="1" parent="1" target="4RATZ_L6z9i9sq4y6GlY-18">
          <mxGeometry x="0.001" width="80" relative="1" as="geometry">
            <mxPoint x="89.99999999999977" y="289.31" as="sourcePoint" />
            <mxPoint x="264.5" y="289.3100000000001" as="targetPoint" />
            <Array as="points">
              <mxPoint x="135" y="289.31" />
              <mxPoint x="300" y="289" />
            </Array>
            <mxPoint as="offset" />
          </mxGeometry>
        </mxCell>
        <mxCell id="4RATZ_L6z9i9sq4y6GlY-21" value="Player" style="html=1;verticalAlign=bottom;endArrow=open;dashed=1;endSize=8;edgeStyle=elbowEdgeStyle;elbow=vertical;curved=0;rounded=0;" edge="1" parent="1">
          <mxGeometry relative="1" as="geometry">
            <mxPoint x="90" y="310" as="targetPoint" />
            <Array as="points">
              <mxPoint x="185" y="310" />
              <mxPoint x="185" y="430" />
            </Array>
            <mxPoint x="389.5" y="310.0000000000001" as="sourcePoint" />
          </mxGeometry>
        </mxCell>
        <mxCell id="4RATZ_L6z9i9sq4y6GlY-22" value="setStartCorner(Point)" style="html=1;verticalAlign=bottom;endArrow=block;curved=0;rounded=0;" edge="1" parent="1">
          <mxGeometry x="0.001" width="80" relative="1" as="geometry">
            <mxPoint x="89.99999999999977" y="330.31" as="sourcePoint" />
            <mxPoint x="390" y="330" as="targetPoint" />
            <Array as="points">
              <mxPoint x="135" y="330.31" />
              <mxPoint x="300" y="330" />
            </Array>
            <mxPoint as="offset" />
          </mxGeometry>
        </mxCell>
        <mxCell id="4RATZ_L6z9i9sq4y6GlY-23" value="generateNeighbours()" style="html=1;verticalAlign=bottom;endArrow=block;curved=0;rounded=0;" edge="1" parent="1">
          <mxGeometry x="0.001" width="80" relative="1" as="geometry">
            <mxPoint x="89.99999999999977" y="350" as="sourcePoint" />
            <mxPoint x="264.5" y="350.0000000000001" as="targetPoint" />
            <Array as="points">
              <mxPoint x="135" y="350" />
            </Array>
            <mxPoint as="offset" />
          </mxGeometry>
        </mxCell>
        <mxCell id="4RATZ_L6z9i9sq4y6GlY-24" value="spawnPawns()" style="html=1;align=left;spacingLeft=2;endArrow=block;rounded=0;edgeStyle=orthogonalEdgeStyle;curved=0;rounded=0;" edge="1" parent="1" target="aM9ryv3xv72pqoxQDRHE-2">
          <mxGeometry x="-0.4289" relative="1" as="geometry">
            <mxPoint x="90" y="360" as="sourcePoint" />
            <Array as="points">
              <mxPoint x="120" y="360" />
              <mxPoint x="120" y="410" />
            </Array>
            <mxPoint x="94.99999999999977" y="390.0344827586207" as="targetPoint" />
            <mxPoint as="offset" />
          </mxGeometry>
        </mxCell>
        <mxCell id="4RATZ_L6z9i9sq4y6GlY-25" value=":PawnsSpawner" style="shape=umlLifeline;perimeter=lifelinePerimeter;whiteSpace=wrap;html=1;container=0;dropTarget=0;collapsible=0;recursiveResize=0;outlineConnect=0;portConstraint=eastwest;newEdgeStyle={&quot;edgeStyle&quot;:&quot;elbowEdgeStyle&quot;,&quot;elbow&quot;:&quot;vertical&quot;,&quot;curved&quot;:0,&quot;rounded&quot;:0};" vertex="1" parent="1">
          <mxGeometry x="460" y="40" width="100" height="430" as="geometry" />
        </mxCell>
        <mxCell id="4RATZ_L6z9i9sq4y6GlY-26" value="" style="html=1;points=[];perimeter=orthogonalPerimeter;outlineConnect=0;targetShapes=umlLifeline;portConstraint=eastwest;newEdgeStyle={&quot;edgeStyle&quot;:&quot;elbowEdgeStyle&quot;,&quot;elbow&quot;:&quot;vertical&quot;,&quot;curved&quot;:0,&quot;rounded&quot;:0};" vertex="1" parent="4RATZ_L6z9i9sq4y6GlY-25">
          <mxGeometry x="45" y="320" width="10" height="50" as="geometry" />
        </mxCell>
        <mxCell id="4RATZ_L6z9i9sq4y6GlY-27" value="new PawnsSpawner(pawnsPerPlayer)" style="html=1;verticalAlign=bottom;endArrow=block;curved=0;rounded=0;" edge="1" parent="1">
          <mxGeometry x="0.001" width="80" relative="1" as="geometry">
            <mxPoint x="89.99999999999977" y="370.31" as="sourcePoint" />
            <mxPoint x="509.5" y="370.0000000000001" as="targetPoint" />
            <Array as="points">
              <mxPoint x="135" y="370.31" />
              <mxPoint x="300" y="370" />
            </Array>
            <mxPoint as="offset" />
          </mxGeometry>
        </mxCell>
        <mxCell id="4RATZ_L6z9i9sq4y6GlY-28" value="PawnsSpawner" style="html=1;verticalAlign=bottom;endArrow=open;dashed=1;endSize=8;edgeStyle=elbowEdgeStyle;elbow=vertical;curved=0;rounded=0;" edge="1" parent="1" source="4RATZ_L6z9i9sq4y6GlY-25">
          <mxGeometry relative="1" as="geometry">
            <mxPoint x="90" y="390" as="targetPoint" />
            <Array as="points">
              <mxPoint x="185" y="390" />
              <mxPoint x="185" y="510" />
            </Array>
            <mxPoint x="389.5" y="390.0000000000001" as="sourcePoint" />
          </mxGeometry>
        </mxCell>
        <mxCell id="4RATZ_L6z9i9sq4y6GlY-29" value="spawn(players)" style="html=1;verticalAlign=bottom;endArrow=block;curved=0;rounded=0;" edge="1" parent="1">
          <mxGeometry x="0.001" width="80" relative="1" as="geometry">
            <mxPoint x="89.99999999999977" y="410.31" as="sourcePoint" />
            <mxPoint x="509.5" y="410.0000000000001" as="targetPoint" />
            <Array as="points">
              <mxPoint x="135" y="410.31" />
              <mxPoint x="300" y="410" />
            </Array>
            <mxPoint as="offset" />
          </mxGeometry>
        </mxCell>
      </root>
    </mxGraphModel>
  </diagram>
</mxfile>
